{"title":"Earth 2009 DVDRiP XViD MFC","uid":4862850,"size":731992289,"categoryP":"video","categoryS":"movies","magnet":"?xt=urn:btih:e5cdf8b6f5d44d63aa50b630f700184a0941b907&amp;dn=Earth+2009+DVDRiP+XViD+MFC&amp;tr=udp%3A%2F%2Ftracker.openbittorrent.com%3A80&amp;tr=udp%3A%2F%2Fopen.demonii.com%3A1337&amp;tr=udp%3A%2F%2Ftracker.coppersurfer.tk%3A6969&amp;tr=udp%3A%2F%2Fexodus.desync.com%3A6969","seeders":2,"leechers":0,"uploader":"teamcoltra","files":3,"time":1240338869,"description":"General\n\nComplete name                    : Earth[2009]RIP...mFc....avi\n\nFormat                           : AVI\n\nFormat/Info                      : Audio Video Interleave\n\nFile size                        : 698 MiB\n\nDuration                         : 1h 35mn\n\nOverall bit rate                 : 1 027 Kbps\n\nWriting application              : VirtualDubMod 1.5.4.1 (build 2178/release)\n\nWriting library                  : VirtualDubMod build 2178/release\n\n\n\nVideo\n\nFormat                           : MPEG-4 Visual\n\nFormat profile                   : Streaming Video@L1\n\nFormat settings, BVOP            : Yes\n\nFormat settings, QPel            : No\n\nFormat settings, GMC             : No warppoints\n\nFormat settings, Matrix          : Custom\n\nCodec ID                         : XVID\n\nCodec ID/Hint                    : XviD\n\nDuration                         : 1h 35mn\n\nBit rate                         : 897 Kbps\n\nWidth                            : 608 pixels\n\nHeight                           : 336 pixels\n\nDisplay aspect ratio             : 16/9\n\nFrame rate                       : 25.000 fps\n\nResolution                       : 24 bits\n\nColorimetry                      : 4:2:0\n\nScan type                        : Progressive\n\nBits/(Pixel*Frame)               : 0.176\n\nStream size                      : 609 MiB (87%)\n\nWriting library                  : XviD 1.2.0.dev47 (UTC 2006-11-01)\n\n\n\nAudio\n\nFormat                           : MPEG Audio\n\nFormat version                   : Version 1\n\nFormat profile                   : Layer 3\n\nCodec ID                         : 55\n\nCodec ID/Hint                    : MP3\n\nDuration                         : 1h 35mn\n\nBit rate mode                    : Variable\n\nBit rate                         : 118 Kbps\n\nMinimum bit rate                 : 128 Kbps\n\nChannel(s)                       : 2 channels\n\nSampling rate                    : 48.0 KHz\n\nResolution                       : 16 bits\n\nStream size                      : 79.9 MiB (11%)\n\nAlignment                        : Aligned on interleaves\n\nInterleave, duration             : 24 ms (0.60 video frame)\n\nInterleave, preload duration     : 179 ms\n\nWriting library                  : LAME3.97 \n\nEncoding settings                : ABR\n\nLanguage                         : English\n\n\n\nThe story of three animal families and their amazing journeys across the planet \n\nwe all call home. The film combines rare action, unimaginable scale and \n\nimpossible locations by capturing the most intimate moments of our planet?s \n\nwildest and most elusive creatures. \n\n\n\nGenres: \tAction/Adventure, Art/Foreign and Documentary\n\nRunning Time: \t1 hr. 39 min.\n\nRelease Date: \tApril 22nd, 2009\n\n\n\n\n\nEnjoy as always...\n\nSB0\n","torrent":{"xt":"urn:btih:e5cdf8b6f5d44d63aa50b630f700184a0941b907","amp;dn":"Earth+2009+DVDRiP+XViD+MFC","amp;tr":["udp%3A%2F%2Ftracker.openbittorrent.com%3A80","udp%3A%2F%2Fopen.demonii.com%3A1337","udp%3A%2F%2Ftracker.coppersurfer.tk%3A6969","udp%3A%2F%2Fexodus.desync.com%3A6969"],"infoHash":"e5cdf8b6f5d44d63aa50b630f700184a0941b907","infoHashBuffer":{"type":"Buffer","data":[229,205,248,182,245,212,77,99,170,80,182,48,247,0,24,74,9,65,185,7]},"announce":[],"urlList":[]}}